<svg class="icon" viewBox="0 0 1024 1024" version="1.1" xmlns="http://www.w3.org/2000/svg" p-id="1625" height="128" width="128"><path d="M513.024 269.568a561.664 561.664 0 0 1 160.256 22.528c47.36 14.08 89.344 33.792 124.928 58.88s58.624 49.664 75.52 77.824 23.552 53.248 23.552 80.384c0 77.056-61.952 132.352-99.072 158.208s-77.568 44.8-124.928 58.88a578.048 578.048 0 0 1-320.512 0c-47.36-14.08-89.344-33.792-124.928-58.88s-58.624-49.664-75.52-77.824-23.552-53.248-23.552-80.384c0-77.056 61.952-132.352 99.072-158.208s77.568-44.8 124.928-58.88a561.664 561.664 0 0 1 160.256-22.528m0-102.4c-268.8 0-486.656 153.344-486.656 342.272s217.856 342.528 486.656 342.528S999.68 698.624 999.68 509.44 781.824 167.168 513.024 167.168z" fill="#4C4C4C" p-id="1626"></path><path d="M509.696 440.064A74.496 74.496 0 1 1 435.2 514.56a74.496 74.496 0 0 1 74.496-74.496m0-102.4a176.896 176.896 0 1 0 176.64 176.896 176.896 176.896 0 0 0-176.896-176.896z" fill="#FCC53A" p-id="1627"></path></svg>