<svg class="icon" viewBox="0 0 1024 1024" version="1.1" xmlns="http://www.w3.org/2000/svg" p-id="2069" height="128" width="128"><path d="M260.209778 537.486222c79.985778-5.688889 143.36-71.338667 145.635555-152.234666-0.227556-2.275556-0.341333-4.551111-0.341333-6.940445 0-42.097778 34.133333-76.231111 76.231111-76.231111 36.181333 0 66.332444 25.258667 74.183111 59.050667h0.341334c4.323556 19.342222 6.599111 39.367111 6.599111 59.960889 0 31.744-5.461333 62.236444-15.36 90.567111l146.204444 0.113777c1.365333 0 2.616889 0.113778 3.982222 0.341334 24.917333 1.024 49.038222 13.880889 63.146667 36.636444 8.988444 14.563556 12.629333 30.833778 11.377778 46.648889M772.323556 595.399111c0.227556 2.844444 0 5.916444-0.796445 8.874667l-56.661333 249.856c-0.796444 2.958222-2.048 5.688889-3.754667 8.078222-6.030222 12.060444-15.246222 22.755556-27.534222 30.606222-12.856889 8.192-27.306667 12.060444-41.528889 12.060445v-0.113778l-363.52-0.227556c-1.251556 0.227556-2.616889 0.341333-3.868444 0.341334h-9.329778l-5.006222-367.388445m433.493333 26.624" fill="#A3A3A3" p-id="2070"></path><path d="M302.762667 498.119111c79.985778-5.688889 143.36-71.338667 145.635555-152.234667-0.227556-2.275556-0.341333-4.551111-0.341333-6.940444 0-42.097778 34.133333-76.231111 76.231111-76.231111 36.181333 0 66.332444 25.258667 74.183111 59.050667h0.341333c4.323556 19.342222 6.599111 39.367111 6.599112 59.960888 0 31.744-5.461333 62.236444-15.36 90.567112l146.204444 0.113777c1.365333 0 2.616889 0.113778 3.982222 0.341334 24.917333 1.024 49.038222 13.880889 63.146667 36.636444 8.988444 14.563556 12.629333 30.833778 11.377778 46.648889M814.876444 556.032c0.227556 2.844444 0 5.916444-0.796444 8.874667l-56.661333 249.856c-0.796444 2.958222-2.048 5.688889-3.754667 8.078222-6.030222 12.060444-15.246222 22.755556-27.534222 30.606222-12.856889 8.192-27.306667 12.060444-41.528889 12.060445v-0.113778l-363.633778-0.113778c-1.251556 0.227556-2.616889 0.341333-3.868444 0.341333h-9.329778l-5.006222-367.388444m433.607111 26.510222" fill="#FFD44D" p-id="2071"></path><path d="M221.866667 807.594667c2.616889-2.503111 2.730667-6.712889 0.227555-9.329778-2.503111-2.616889-6.712889-2.730667-9.329778-0.227556-2.616889 2.503111-2.730667 6.712889-0.227555 9.329778 2.616889 2.730667 6.712889 2.730667 9.329778 0.227556zM176.355556 760.149333c2.616889-2.503111 2.730667-6.712889 0.227555-9.329777-2.503111-2.616889-6.712889-2.730667-9.329778-0.227556-2.616889 2.503111-2.730667 6.712889-0.227555 9.329778 2.503111 2.730667 6.712889 2.844444 9.329778 0.227555zM315.733333 762.993778c2.616889-2.503111 2.730667-6.712889 0.227556-9.329778-2.503111-2.616889-6.712889-2.730667-9.329778-0.227556-2.616889 2.503111-2.730667 6.712889-0.227555 9.329778 2.616889 2.730667 6.712889 2.730667 9.329777 0.227556zM362.268444 763.904c2.616889-2.503111 2.730667-6.712889 0.227556-9.329778-2.503111-2.616889-6.712889-2.730667-9.329778-0.227555-2.616889 2.503111-2.730667 6.712889-0.227555 9.329777 2.503111 2.730667 6.712889 2.844444 9.329777 0.227556zM316.757333 716.572444c2.616889-2.503111 2.730667-6.712889 0.227556-9.329777-2.503111-2.616889-6.712889-2.730667-9.329778-0.227556-2.616889 2.503111-2.730667 6.712889-0.227555 9.329778 2.503111 2.616889 6.712889 2.730667 9.329777 0.227555zM314.823111 809.528889c2.616889-2.503111 2.730667-6.712889 0.227556-9.329778-2.503111-2.616889-6.712889-2.730667-9.329778-0.227555-2.616889 2.503111-2.730667 6.712889-0.227556 9.329777 2.616889 2.616889 6.712889 2.730667 9.329778 0.227556zM268.401778 808.504889c2.616889-2.503111 2.730667-6.712889 0.227555-9.329778-2.503111-2.616889-6.712889-2.730667-9.329777-0.227555-2.616889 2.503111-2.730667 6.712889-0.227556 9.329777 2.503111 2.730667 6.712889 2.730667 9.329778 0.227556zM271.132444 669.127111c2.616889-2.503111 2.730667-6.712889 0.227556-9.329778-2.503111-2.616889-6.712889-2.730667-9.329778-0.227555-2.616889 2.503111-2.730667 6.712889-0.227555 9.329778 2.616889 2.616889 6.712889 2.730667 9.329777 0.227555zM178.289778 667.192889c2.616889-2.503111 2.730667-6.712889 0.227555-9.329778-2.503111-2.616889-6.712889-2.730667-9.329777-0.227555-2.616889 2.503111-2.730667 6.712889-0.227556 9.329777 2.503111 2.730667 6.599111 2.844444 9.329778 0.227556zM270.222222 715.548444c1.934222-1.934222 2.503111-4.664889 1.592889-7.054222-0.341333-0.796444-0.796444-1.592889-1.365333-2.161778l-0.455111-0.455111c-0.682667-0.568889-1.479111-1.024-2.275556-1.251555-0.568889-0.227556-1.251556-0.341333-1.820444-0.341334-1.706667 0-3.413333 0.568889-4.664889 1.820445-1.365333 1.251556-1.934222 2.958222-2.048 4.551111 0 0.455111 0 0.796444 0.113778 1.251556 0.227556 1.251556 0.796444 2.389333 1.706666 3.413333 0.682667 0.682667 1.365333 1.137778 2.161778 1.479111 2.275556 1.137778 5.12 0.682667 7.054222-1.251556zM177.265778 713.728c2.616889-2.503111 2.730667-6.712889 0.227555-9.329778-2.503111-2.616889-6.712889-2.730667-9.329777-0.227555-2.616889 2.503111-2.730667 6.712889-0.227556 9.329777 2.616889 2.616889 6.712889 2.730667 9.329778 0.227556zM179.2 620.771556c1.934222-1.934222 2.503111-4.664889 1.592889-7.054223-0.341333-0.796444-0.796444-1.592889-1.365333-2.161777-0.682667-0.682667-1.365333-1.137778-2.161778-1.479112-0.796444-0.341333-1.592889-0.568889-2.503111-0.568888-1.706667 0-3.413333 0.568889-4.664889 1.820444-1.137778 1.137778-1.820444 2.503111-1.934222 3.982222v0.682667c0 0.796444 0.113778 1.706667 0.455111 2.503111 0.341333 0.796444 0.796444 1.592889 1.365333 2.161778 0.682667 0.682667 1.365333 1.137778 2.161778 1.479111 2.275556 0.910222 5.12 0.568889 7.054222-1.365333zM410.624 671.971556c2.616889-2.503111 2.730667-6.712889 0.227556-9.329778-2.503111-2.616889-6.712889-2.730667-9.329778-0.227556-2.616889 2.503111-2.730667 6.712889-0.227556 9.329778 2.503111 2.616889 6.712889 2.730667 9.329778 0.227556zM457.045333 672.881778c2.616889-2.503111 2.730667-6.712889 0.227556-9.329778-2.503111-2.616889-6.712889-2.730667-9.329778-0.227556-2.616889 2.503111-2.730667 6.712889-0.227555 9.329778 2.616889 2.616889 6.712889 2.730667 9.329777 0.227556zM411.534222 625.436444c2.616889-2.503111 2.730667-6.712889 0.227556-9.329777-2.503111-2.616889-6.712889-2.730667-9.329778-0.227556-2.616889 2.503111-2.730667 6.712889-0.227556 9.329778 2.616889 2.730667 6.712889 2.730667 9.329778 0.227555zM409.713778 718.392889c2.616889-2.503111 2.730667-6.712889 0.227555-9.329778-2.503111-2.616889-6.712889-2.730667-9.329777-0.227555-2.616889 2.503111-2.730667 6.712889-0.227556 9.329777 2.503111 2.730667 6.712889 2.730667 9.329778 0.227556zM364.088889 670.947556c2.616889-2.503111 2.730667-6.712889 0.227555-9.329778-2.503111-2.616889-6.712889-2.730667-9.329777-0.227556-2.616889 2.503111-2.730667 6.712889-0.227556 9.329778 2.616889 2.730667 6.712889 2.844444 9.329778 0.227556zM363.178667 717.482667c2.616889-2.503111 2.730667-6.712889 0.227555-9.329778-2.503111-2.616889-6.712889-2.730667-9.329778-0.227556-2.616889 2.503111-2.730667 6.712889-0.227555 9.329778 2.616889 2.616889 6.712889 2.730667 9.329778 0.227556zM319.488 577.080889c2.616889-2.503111 2.730667-6.712889 0.227556-9.329778-2.503111-2.616889-6.712889-2.730667-9.329778-0.227555-2.616889 2.503111-2.730667 6.712889-0.227556 9.329777 2.616889 2.730667 6.712889 2.730667 9.329778 0.227556zM366.023111 578.104889c2.616889-2.503111 2.730667-6.712889 0.227556-9.329778-2.503111-2.616889-6.712889-2.730667-9.329778-0.227555-2.616889 2.503111-2.730667 6.712889-0.227556 9.329777 2.503111 2.616889 6.712889 2.730667 9.329778 0.227556zM320.512 530.659556c2.616889-2.503111 2.730667-6.712889 0.227556-9.329778-2.503111-2.616889-6.712889-2.730667-9.329778-0.227556-2.616889 2.503111-2.730667 6.712889-0.227556 9.329778 2.503111 2.616889 6.712889 2.730667 9.329778 0.227556zM318.577778 623.616c2.616889-2.503111 2.730667-6.712889 0.227555-9.329778-2.503111-2.616889-6.712889-2.730667-9.329777-0.227555-2.616889 2.503111-2.730667 6.712889-0.227556 9.329777 2.616889 2.616889 6.712889 2.730667 9.329778 0.227556zM273.066667 576.170667c2.616889-2.503111 2.730667-6.712889 0.227555-9.329778-2.503111-2.616889-6.712889-2.730667-9.329778-0.227556-2.616889 2.503111-2.730667 6.712889-0.227555 9.329778 2.503111 2.616889 6.712889 2.730667 9.329778 0.227556zM365.112889 624.526222c1.934222-1.934222 2.503111-4.664889 1.592889-7.054222-0.341333-0.796444-0.796444-1.592889-1.365334-2.161778-1.137778-1.137778-2.503111-1.820444-3.982222-1.934222h-0.682666c-1.706667 0-3.413333 0.568889-4.664889 1.820444-1.365333 1.251556-1.934222 2.958222-2.048 4.551112 0 0.455111 0 0.796444 0.113777 1.251555 0.227556 1.251556 0.796444 2.389333 1.706667 3.413333 0.682667 0.682667 1.365333 1.137778 2.161778 1.479112 2.275556 0.910222 5.12 0.568889 7.168-1.365334zM272.156444 622.705778c2.616889-2.503111 2.730667-6.712889 0.227556-9.329778-2.503111-2.616889-6.712889-2.730667-9.329778-0.227556-2.616889 2.503111-2.730667 6.712889-0.227555 9.329778 2.503111 2.616889 6.712889 2.730667 9.329777 0.227556zM317.667556 670.037333c1.934222-1.934222 2.503111-4.664889 1.592888-7.054222-0.341333-0.796444-0.796444-1.592889-1.365333-2.161778-0.796444-0.796444-1.706667-1.365333-2.730667-1.706666-0.568889-0.227556-1.251556-0.341333-1.820444-0.341334-1.706667 0-3.413333 0.568889-4.664889 1.820445-1.365333 1.251556-1.934222 2.958222-2.048 4.551111 0 0.455111 0 0.796444 0.113778 1.251555 0.227556 1.251556 0.796444 2.389333 1.706667 3.413334 0.682667 0.682667 1.365333 1.137778 2.161777 1.479111 2.275556 1.137778 5.12 0.682667 7.054223-1.251556zM273.976889 529.749333c1.934222-1.934222 2.503111-4.664889 1.592889-7.054222-0.341333-0.796444-0.796444-1.592889-1.365334-2.161778-0.682667-0.682667-1.365333-1.137778-2.161777-1.479111-0.796444-0.341333-1.592889-0.568889-2.503111-0.568889h-0.682667c-1.479111 0.113778-2.958222 0.682667-4.096 1.820445s-1.820444 2.503111-1.934222 3.982222v0.682667c0 0.796444 0.113778 1.706667 0.455111 2.503111s0.796444 1.592889 1.365333 2.161778c0.682667 0.682667 1.365333 1.137778 2.161778 1.479111 2.389333 0.910222 5.233778 0.455111 7.168-1.365334zM505.400889 580.835556c2.616889-2.503111 2.730667-6.712889 0.227555-9.329778-2.503111-2.616889-6.712889-2.730667-9.329777-0.227556-2.616889 2.503111-2.730667 6.712889-0.227556 9.329778 2.616889 2.730667 6.712889 2.730667 9.329778 0.227556zM504.490667 627.370667c2.616889-2.503111 2.730667-6.712889 0.227555-9.329778-2.503111-2.616889-6.712889-2.730667-9.329778-0.227556-2.616889 2.503111-2.730667 6.712889-0.227555 9.329778 2.503111 2.616889 6.712889 2.730667 9.329778 0.227556zM458.979556 579.925333c2.616889-2.503111 2.730667-6.712889 0.227555-9.329777-2.503111-2.616889-6.712889-2.730667-9.329778-0.227556-2.616889 2.503111-2.730667 6.712889-0.227555 9.329778 2.503111 2.616889 6.712889 2.730667 9.329778 0.227555zM458.069333 626.460444c2.616889-2.503111 2.730667-6.712889 0.227556-9.329777-2.503111-2.616889-6.712889-2.730667-9.329778-0.227556-2.616889 2.503111-2.730667 6.712889-0.227555 9.329778 2.503111 2.616889 6.712889 2.730667 9.329777 0.227555zM414.378667 486.058667c2.616889-2.503111 2.730667-6.712889 0.227555-9.329778-2.503111-2.616889-6.712889-2.730667-9.329778-0.227556-2.616889 2.503111-2.730667 6.712889-0.227555 9.329778 2.503111 2.616889 6.712889 2.730667 9.329778 0.227556zM413.468444 532.48c2.616889-2.503111 2.730667-6.712889 0.227556-9.329778-2.503111-2.616889-6.712889-2.730667-9.329778-0.227555-2.616889 2.503111-2.730667 6.712889-0.227555 9.329777 2.503111 2.730667 6.712889 2.730667 9.329777 0.227556zM459.889778 533.504c1.934222-1.934222 2.503111-4.664889 1.592889-7.054222-0.341333-0.796444-0.796444-1.592889-1.365334-2.161778-0.910222-1.024-2.161778-1.592889-3.299555-1.820444-0.455111-0.113778-0.796444-0.113778-1.251556-0.113778-1.706667 0-3.413333 0.568889-4.664889 1.820444-1.365333 1.251556-1.934222 2.958222-2.048 4.551111 0 0.455111 0 0.796444 0.113778 1.251556 0.227556 1.251556 0.796444 2.389333 1.706667 3.413333 0.682667 0.682667 1.365333 1.137778 2.161778 1.479111 2.275556 0.910222 5.12 0.455111 7.054222-1.365333zM366.933333 531.569778c2.616889-2.503111 2.730667-6.712889 0.227556-9.329778-2.503111-2.616889-6.712889-2.730667-9.329778-0.227556-2.616889 2.503111-2.730667 6.712889-0.227555 9.329778 2.616889 2.616889 6.712889 2.730667 9.329777 0.227556zM412.444444 579.015111c0.227556-0.227556 0.455111-0.455111 0.682667-0.796444 1.365333-1.820444 1.706667-4.209778 0.910222-6.371556-0.341333-0.796444-0.796444-1.592889-1.365333-2.161778-0.796444-0.796444-1.706667-1.365333-2.730667-1.706666-0.568889-0.227556-1.251556-0.341333-1.820444-0.341334-1.706667 0-3.413333 0.568889-4.664889 1.820445-1.365333 1.251556-1.934222 2.958222-2.048 4.551111 0 0.455111 0 0.796444 0.113778 1.251555 0.227556 1.251556 0.796444 2.389333 1.706666 3.413334 0.682667 0.682667 1.365333 1.137778 2.161778 1.479111 2.275556 1.137778 5.12 0.682667 7.054222-1.137778zM368.867556 438.613333c1.934222-1.934222 2.503111-4.664889 1.592888-7.054222-0.341333-0.796444-0.796444-1.592889-1.365333-2.161778-0.682667-0.682667-1.365333-1.137778-2.161778-1.479111-0.796444-0.341333-1.592889-0.568889-2.503111-0.568889h-0.682666c-1.479111 0.113778-2.958222 0.682667-4.096 1.820445s-1.820444 2.503111-1.934223 3.982222v0.682667c0 0.796444 0.113778 1.706667 0.455111 2.503111s0.796444 1.592889 1.365334 2.161778c0.682667 0.682667 1.365333 1.137778 2.161778 1.479111 2.389333 0.910222 5.12 0.568889 7.168-1.365334zM407.779556 811.349333c2.616889-2.503111 2.730667-6.712889 0.227555-9.329777-2.503111-2.616889-6.712889-2.730667-9.329778-0.227556-2.616889 2.503111-2.730667 6.712889-0.227555 9.329778 2.503111 2.730667 6.712889 2.730667 9.329778 0.227555zM358.513778 812.032c0.113778 0 0.227556-0.113778 0.341333-0.113778 0.113778 0 0.113778 0 0.227556-0.113778 0.796444-0.341333 1.592889-0.796444 2.161777-1.365333 1.251556-1.251556 1.934222-2.844444 2.048-4.437333v-0.455111c0-1.592889-0.568889-3.185778-1.820444-4.437334-1.137778-1.137778-2.503111-1.820444-3.982222-1.934222h-0.682667c-1.706667 0-3.413333 0.568889-4.664889 1.820445-1.024 0.910222-1.592889 2.161778-1.820444 3.299555-0.113778 0.455111-0.113778 0.796444-0.113778 1.251556 0 0.796444 0.113778 1.706667 0.455111 2.503111 0.341333 0.796444 0.796444 1.592889 1.365333 2.161778 0.227556 0.227556 0.455111 0.455111 0.682667 0.568888 1.592889 1.365333 3.868444 1.820444 5.802667 1.251556zM631.011556 806.570667c-2.616889 2.503111-2.730667 6.712889-0.227556 9.329777 2.503111 2.616889 6.712889 2.730667 9.329778 0.227556 2.616889-2.503111 2.730667-6.712889 0.227555-9.329778-2.503111-2.616889-6.712889-2.730667-9.329777-0.227555zM593.692444 815.104c2.616889-2.503111 2.730667-6.712889 0.227556-9.329778-2.503111-2.616889-6.712889-2.730667-9.329778-0.227555-2.616889 2.503111-2.730667 6.712889-0.227555 9.329777 2.503111 2.730667 6.712889 2.730667 9.329777 0.227556zM501.646222 766.748444c2.616889-2.503111 2.730667-6.712889 0.227556-9.329777-2.503111-2.616889-6.712889-2.730667-9.329778-0.227556-2.616889 2.503111-2.730667 6.712889-0.227556 9.329778 2.616889 2.730667 6.712889 2.730667 9.329778 0.227555zM548.181333 767.658667c2.616889-2.503111 2.730667-6.712889 0.227556-9.329778-2.503111-2.616889-6.712889-2.730667-9.329778-0.227556-2.616889 2.503111-2.730667 6.712889-0.227555 9.329778 2.503111 2.730667 6.712889 2.844444 9.329777 0.227556zM502.670222 720.327111c2.616889-2.503111 2.730667-6.712889 0.227556-9.329778-2.503111-2.616889-6.712889-2.730667-9.329778-0.227555-2.616889 2.503111-2.730667 6.712889-0.227556 9.329778 2.503111 2.616889 6.599111 2.730667 9.329778 0.227555zM500.736 813.283556c2.616889-2.503111 2.730667-6.712889 0.227556-9.329778-2.503111-2.616889-6.712889-2.730667-9.329778-0.227556-2.616889 2.503111-2.730667 6.712889-0.227556 9.329778 2.503111 2.616889 6.712889 2.730667 9.329778 0.227556zM455.224889 765.838222c2.616889-2.503111 2.730667-6.712889 0.227555-9.329778-2.503111-2.616889-6.712889-2.730667-9.329777-0.227555-2.616889 2.503111-2.730667 6.712889-0.227556 9.329778 2.503111 2.616889 6.712889 2.730667 9.329778 0.227555zM544.995556 815.559111c0.796444-0.341333 1.592889-0.796444 2.161777-1.365333 0.682667-0.682667 1.137778-1.365333 1.479111-2.161778 1.024-2.389333 0.568889-5.233778-1.251555-7.168-0.682667-0.682667-1.365333-1.137778-2.161778-1.479111-1.592889-0.682667-3.299556-0.682667-5.006222-0.113778-0.796444 0.341333-1.592889 0.796444-2.161778 1.365333-0.682667 0.682667-1.137778 1.365333-1.479111 2.161778-0.682667 1.592889-0.682667 3.299556-0.113778 4.892445 0.341333 0.796444 0.796444 1.592889 1.365334 2.161777 1.934222 2.161778 4.778667 2.616889 7.168 1.706667zM454.200889 812.259556c2.616889-2.503111 2.730667-6.712889 0.227555-9.329778-2.503111-2.616889-6.712889-2.730667-9.329777-0.227556-2.616889 2.503111-2.730667 6.712889-0.227556 9.329778 2.616889 2.730667 6.712889 2.844444 9.329778 0.227556zM452.949333 721.009778c1.137778-0.227556 2.275556-0.796444 3.185778-1.706667l0.455111-0.455111c0.910222-1.137778 1.479111-2.503111 1.592889-3.982222 0.113778-1.479111-0.341333-2.958222-1.251555-4.323556-0.113778-0.227556-0.341333-0.455111-0.568889-0.568889-0.796444-0.796444-1.706667-1.365333-2.730667-1.706666-0.227556-0.113778-0.455111-0.113778-0.568889-0.113778-0.568889-0.113778-1.251556-0.227556-1.934222-0.113778-1.479111 0.113778-2.958222 0.682667-4.096 1.820445-0.682667 0.682667-1.137778 1.365333-1.479111 2.161777-0.455111 1.024-0.568889 2.048-0.568889 3.072 0 0.227556 0 0.455111 0.113778 0.682667 0.227556 1.251556 0.796444 2.389333 1.706666 3.413333 0.227556 0.227556 0.455111 0.455111 0.682667 0.568889 1.592889 1.251556 3.527111 1.706667 5.461333 1.251556zM405.959111 766.520889c1.024-0.227556 1.934222-0.796444 2.844445-1.592889 1.137778-1.137778 1.820444-2.503111 1.934222-3.982222v-0.682667c0-0.568889-0.113778-1.137778-0.227556-1.706667 0-0.227556-0.113778-0.341333-0.113778-0.568888 0-0.113778-0.113778-0.227556-0.113777-0.341334-0.113778-0.227556-0.227556-0.568889-0.341334-0.796444-0.113778-0.113778-0.113778-0.227556-0.227555-0.455111-0.227556-0.341333-0.455111-0.568889-0.682667-0.910223-0.682667-0.682667-1.365333-1.137778-2.161778-1.479111-2.389333-1.024-5.233778-0.568889-7.168 1.251556-0.455111 0.455111-0.910222 1.024-1.251555 1.592889-0.227556 0.341333-0.341333 0.796444-0.455111 1.137778-0.113778 0.227556-0.113778 0.455111-0.113778 0.568888-0.455111 2.048 0.113778 4.323556 1.706667 5.916445 0.227556 0.227556 0.455111 0.455111 0.682666 0.568889 1.479111 1.592889 3.640889 2.048 5.688889 1.479111zM678.456889 761.059556c-2.616889 2.503111-2.730667 6.712889-0.227556 9.329777 2.503111 2.616889 6.712889 2.730667 9.329778 0.227556 2.616889-2.503111 2.730667-6.712889 0.227556-9.329778-2.503111-2.730667-6.712889-2.730667-9.329778-0.227555zM677.546667 807.480889c-2.616889 2.503111-2.730667 6.712889-0.227556 9.329778 2.503111 2.616889 6.712889 2.730667 9.329778 0.227555 2.616889-2.503111 2.730667-6.712889 0.227555-9.329778-2.616889-2.616889-6.712889-2.730667-9.329777-0.227555zM641.137778 769.592889c2.616889-2.503111 2.730667-6.712889 0.227555-9.329778-2.503111-2.616889-6.712889-2.730667-9.329777-0.227555-2.616889 2.503111-2.730667 6.712889-0.227556 9.329777 2.503111 2.616889 6.712889 2.730667 9.329778 0.227556zM596.536889 675.726222c2.616889-2.503111 2.730667-6.712889 0.227555-9.329778-2.503111-2.616889-6.712889-2.730667-9.329777-0.227555-2.616889 2.503111-2.730667 6.712889-0.227556 9.329778 2.503111 2.616889 6.712889 2.730667 9.329778 0.227555zM595.512889 722.147556c2.616889-2.503111 2.730667-6.712889 0.227555-9.329778-2.503111-2.616889-6.712889-2.730667-9.329777-0.227556-2.616889 2.503111-2.730667 6.712889-0.227556 9.329778 2.616889 2.730667 6.712889 2.730667 9.329778 0.227556zM550.001778 674.816c2.616889-2.503111 2.730667-6.712889 0.227555-9.329778-2.503111-2.616889-6.712889-2.730667-9.329777-0.227555-2.616889 2.503111-2.730667 6.712889-0.227556 9.329777 2.616889 2.616889 6.712889 2.730667 9.329778 0.227556zM639.886222 724.536889c0.796444-0.341333 1.592889-0.796444 2.161778-1.365333 0.682667-0.682667 1.137778-1.365333 1.479111-2.161778 1.024-2.389333 0.568889-5.233778-1.251555-7.168-0.682667-0.682667-1.365333-1.137778-2.161778-1.479111-1.592889-0.682667-3.299556-0.682667-4.892445-0.113778-0.796444 0.341333-1.592889 0.796444-2.161777 1.365333-0.682667 0.682667-1.137778 1.365333-1.479112 2.161778-0.682667 1.592889-0.682667 3.299556-0.113777 4.892444 0.341333 0.796444 0.796444 1.592889 1.365333 2.161778 1.820444 2.048 4.664889 2.616889 7.054222 1.706667zM549.091556 721.237333c2.616889-2.503111 2.730667-6.712889 0.227555-9.329777-2.503111-2.616889-6.712889-2.730667-9.329778-0.227556-2.616889 2.503111-2.730667 6.712889-0.227555 9.329778 2.503111 2.616889 6.712889 2.730667 9.329778 0.227555zM592.440889 770.048c0.796444-0.341333 1.592889-0.796444 2.161778-1.365333 0.682667-0.682667 1.137778-1.365333 1.479111-2.161778 1.024-2.389333 0.568889-5.233778-1.251556-7.168-0.682667-0.682667-1.365333-1.137778-2.161778-1.479111-1.592889-0.682667-3.299556-0.682667-4.892444-0.113778-0.796444 0.341333-1.592889 0.796444-2.161778 1.365333-0.682667 0.682667-1.137778 1.365333-1.479111 2.161778-0.682667 1.592889-0.682667 3.299556-0.113778 4.892445 0.341333 0.796444 0.796444 1.592889 1.365334 2.161777 1.820444 2.048 4.664889 2.616889 7.054222 1.706667zM551.025778 628.280889c1.024-1.024 1.706667-2.275556 1.934222-3.640889 0.341333-1.706667-0.113778-3.527111-1.251556-5.006222-0.113778-0.227556-0.341333-0.455111-0.568888-0.568889-0.796444-0.796444-1.706667-1.365333-2.730667-1.706667-0.227556-0.113778-0.455111-0.113778-0.568889-0.113778-0.568889-0.113778-1.251556-0.227556-1.934222-0.113777-1.479111 0.113778-2.958222 0.682667-4.096 1.820444-0.455111 0.455111-0.910222 1.024-1.251556 1.592889-0.227556 0.341333-0.341333 0.796444-0.455111 1.137778-0.113778 0.227556-0.113778 0.455111-0.113778 0.568889-0.455111 2.048 0.113778 4.323556 1.706667 5.916444 0.455111 0.455111 0.910222 0.796444 1.479111 1.137778l0.113778 0.113778c0.910222 0.568889 1.934222 0.796444 3.072 0.796444 1.592889-0.113778 3.299556-0.682667 4.664889-1.934222zM500.167111 675.612444c1.251556-0.227556 2.389333-0.796444 3.413333-1.706666 1.137778-1.137778 1.820444-2.503111 1.934223-3.982222 0.227556-1.820444-0.341333-3.868444-1.820445-5.347556-1.592889-1.592889-3.754667-2.275556-5.916444-1.934222-0.455111 0.113778-0.796444 0.227556-1.251556 0.341333-0.455111 0.113778-0.796444 0.341333-1.137778 0.568889-0.341333 0.227556-0.682667 0.455111-1.024 0.796444-0.455111 0.455111-0.910222 1.024-1.251555 1.592889-0.227556 0.341333-0.341333 0.796444-0.455111 1.137778-0.113778 0.227556-0.113778 0.455111-0.113778 0.568889-0.455111 2.048 0.113778 4.323556 1.706667 5.916444 0.455111 0.455111 0.910222 0.796444 1.479111 1.137778l0.113778 0.113778c1.365333 0.796444 2.844444 1.024 4.323555 0.796444zM562.176 581.063111c2.616889-2.503111 2.730667-6.712889 0.227556-9.329778-2.503111-2.616889-6.712889-2.730667-9.329778-0.227555-2.616889 2.503111-2.730667 6.712889-0.227556 9.329778 2.616889 2.730667 6.712889 2.730667 9.329778 0.227555zM516.664889 533.617778c2.616889-2.503111 2.730667-6.712889 0.227555-9.329778-2.503111-2.616889-6.712889-2.730667-9.329777-0.227556-2.616889 2.503111-2.730667 6.712889-0.227556 9.329778 2.503111 2.730667 6.712889 2.844444 9.329778 0.227556zM471.153778 486.286222c2.616889-2.503111 2.730667-6.712889 0.227555-9.329778-2.503111-2.616889-6.712889-2.730667-9.329777-0.227555-2.616889 2.503111-2.730667 6.712889-0.227556 9.329778 2.503111 2.616889 6.712889 2.730667 9.329778 0.227555zM425.642667 438.840889c2.616889-2.503111 2.730667-6.712889 0.227555-9.329778-2.503111-2.616889-6.712889-2.730667-9.329778-0.227555-2.616889 2.503111-2.730667 6.712889-0.227555 9.329777 2.503111 2.616889 6.712889 2.730667 9.329778 0.227556zM610.531556 489.016889c2.616889-2.503111 2.730667-6.712889 0.227555-9.329778-2.503111-2.616889-6.712889-2.730667-9.329778-0.227555-2.616889 2.503111-2.730667 6.712889-0.227555 9.329777 2.616889 2.730667 6.712889 2.844444 9.329778 0.227556zM657.066667 490.040889c2.616889-2.503111 2.730667-6.712889 0.227555-9.329778-2.503111-2.616889-6.712889-2.730667-9.329778-0.227555-2.616889 2.503111-2.730667 6.712889-0.227555 9.329777 2.503111 2.616889 6.712889 2.730667 9.329778 0.227556zM609.621333 535.552c2.616889-2.503111 2.730667-6.712889 0.227556-9.329778-2.503111-2.616889-6.712889-2.730667-9.329778-0.227555-2.616889 2.503111-2.730667 6.712889-0.227555 9.329777 2.503111 2.616889 6.712889 2.730667 9.329777 0.227556zM564.110222 488.106667c2.616889-2.503111 2.730667-6.712889 0.227556-9.329778-2.503111-2.616889-6.712889-2.730667-9.329778-0.227556-2.616889 2.503111-2.730667 6.712889-0.227556 9.329778 2.503111 2.730667 6.712889 2.730667 9.329778 0.227556zM563.086222 534.641778c2.616889-2.503111 2.730667-6.712889 0.227556-9.329778-2.503111-2.616889-6.712889-2.730667-9.329778-0.227556-2.616889 2.503111-2.730667 6.712889-0.227556 9.329778 2.616889 2.616889 6.712889 2.730667 9.329778 0.227556zM605.866667 583.566222c1.024-0.227556 1.934222-0.796444 2.844444-1.592889l0.682667-0.682666c0.910222-1.137778 1.365333-2.503111 1.365333-3.868445 0-1.024-0.227556-2.161778-0.682667-3.072 0-0.113778-0.113778-0.113778-0.113777-0.227555-0.113778-0.113778-0.227556-0.341333-0.341334-0.455111-0.227556-0.341333-0.455111-0.568889-0.682666-0.910223-1.251556-1.365333-2.958222-1.934222-4.551111-2.048-1.706667 0-3.413333 0.568889-4.664889 1.820445-1.024 0.910222-1.592889 2.161778-1.820445 3.299555-0.113778 0.455111-0.113778 0.796444-0.113778 1.251556 0 0.796444 0.113778 1.706667 0.455112 2.503111 0.113778 0.455111 0.341333 0.796444 0.568888 1.137778 0.227556 0.341333 0.455111 0.682667 0.796445 1.024l0.568889 0.568889c1.479111 1.479111 3.640889 1.820444 5.688889 1.251555zM519.509333 394.24c2.616889-2.503111 2.730667-6.712889 0.227556-9.329778-2.503111-2.616889-6.712889-2.730667-9.329778-0.227555-2.616889 2.503111-2.730667 6.712889-0.227555 9.329777 2.503111 2.616889 6.712889 2.730667 9.329777 0.227556zM565.930667 395.150222c2.616889-2.503111 2.730667-6.712889 0.227555-9.329778-2.503111-2.616889-6.712889-2.730667-9.329778-0.227555-2.616889 2.503111-2.730667 6.712889-0.227555 9.329778 2.616889 2.730667 6.712889 2.730667 9.329778 0.227555zM520.419556 347.818667c2.616889-2.503111 2.730667-6.712889 0.227555-9.329778-2.503111-2.616889-6.712889-2.730667-9.329778-0.227556-2.616889 2.503111-2.730667 6.712889-0.227555 9.329778 2.503111 2.616889 6.712889 2.730667 9.329778 0.227556zM518.599111 440.661333c2.616889-2.503111 2.730667-6.712889 0.227556-9.329777-2.503111-2.616889-6.712889-2.730667-9.329778-0.227556-2.616889 2.503111-2.730667 6.712889-0.227556 9.329778 2.503111 2.730667 6.599111 2.844444 9.329778 0.227555zM472.974222 393.329778c2.616889-2.503111 2.730667-6.712889 0.227556-9.329778-2.503111-2.616889-6.712889-2.730667-9.329778-0.227556-2.616889 2.503111-2.730667 6.712889-0.227556 9.329778 2.616889 2.616889 6.712889 2.730667 9.329778 0.227556zM565.020444 441.685333c1.934222-1.934222 2.503111-4.664889 1.592889-7.054222-0.341333-0.796444-0.796444-1.592889-1.365333-2.161778l-0.455111-0.455111c-0.682667-0.568889-1.479111-1.024-2.275556-1.251555-0.568889-0.227556-1.251556-0.341333-1.820444-0.341334-1.706667 0-3.413333 0.568889-4.664889 1.820445-1.365333 1.251556-1.934222 2.958222-2.048 4.551111 0 0.455111 0 0.796444 0.113778 1.251555 0.227556 1.251556 0.796444 2.389333 1.706666 3.413334 0.682667 0.682667 1.365333 1.137778 2.161778 1.479111 2.275556 1.024 5.12 0.568889 7.054222-1.251556zM472.064 439.751111c2.616889-2.503111 2.730667-6.712889 0.227556-9.329778-2.503111-2.616889-6.712889-2.730667-9.329778-0.227555-2.616889 2.503111-2.730667 6.712889-0.227556 9.329778 2.503111 2.730667 6.712889 2.730667 9.329778 0.227555zM517.575111 487.196444c1.934222-1.934222 2.503111-4.664889 1.592889-7.054222-0.341333-0.796444-0.796444-1.592889-1.365333-2.161778-0.910222-1.024-2.161778-1.592889-3.299556-1.820444-0.455111-0.113778-0.796444-0.113778-1.251555-0.113778-1.706667 0-3.413333 0.568889-4.664889 1.820445-1.365333 1.251556-1.934222 2.958222-2.048 4.551111 0 0.455111 0 0.796444 0.113777 1.251555 0.227556 1.251556 0.796444 2.389333 1.706667 3.413334 0.682667 0.682667 1.365333 1.137778 2.161778 1.479111 2.275556 0.910222 5.12 0.568889 7.054222-1.365334zM473.998222 346.794667c1.934222-1.934222 2.503111-4.664889 1.592889-7.054223-0.341333-0.796444-0.796444-1.592889-1.365333-2.161777-0.682667-0.682667-1.365333-1.137778-2.161778-1.479111-0.796444-0.341333-1.592889-0.568889-2.503111-0.568889-1.706667 0-3.413333 0.568889-4.664889 1.820444-1.137778 1.137778-1.820444 2.503111-1.934222 3.982222v0.682667c0 0.796444 0.113778 1.706667 0.455111 2.503111 0.341333 0.796444 0.796444 1.592889 1.365333 2.161778 0.682667 0.682667 1.365333 1.137778 2.161778 1.479111 2.161778 1.024 5.006222 0.568889 7.054222-1.365333zM426.552889 392.305778c1.934222-1.934222 2.503111-4.664889 1.592889-7.054222-0.341333-0.796444-0.796444-1.592889-1.365334-2.161778-0.682667-0.682667-1.365333-1.137778-2.161777-1.479111-0.796444-0.341333-1.592889-0.568889-2.503111-0.568889-1.706667 0-3.413333 0.568889-4.664889 1.820444-1.024 1.024-1.592889 2.161778-1.934223 3.527111-0.113778 0.341333-0.113778 0.682667-0.113777 1.137778 0 0.796444 0.113778 1.706667 0.455111 2.503111 0.341333 0.796444 0.796444 1.592889 1.365333 2.161778 0.682667 0.682667 1.365333 1.137778 2.161778 1.479111 2.389333 1.024 5.233778 0.568889 7.168-1.365333zM705.422222 397.994667c2.616889-2.503111 2.730667-6.712889 0.227556-9.329778-2.503111-2.616889-6.712889-2.730667-9.329778-0.227556-2.616889 2.503111-2.730667 6.712889-0.227556 9.329778 2.503111 2.616889 6.712889 2.730667 9.329778 0.227556zM751.843556 398.904889c2.616889-2.503111 2.730667-6.712889 0.227555-9.329778-2.503111-2.616889-6.712889-2.730667-9.329778-0.227555-2.616889 2.503111-2.730667 6.712889-0.227555 9.329777 2.616889 2.730667 6.712889 2.730667 9.329778 0.227556zM658.887111 397.084444c2.616889-2.503111 2.730667-6.712889 0.227556-9.329777-2.503111-2.616889-6.712889-2.730667-9.329778-0.227556-2.616889 2.503111-2.730667 6.712889-0.227556 9.329778 2.616889 2.616889 6.712889 2.730667 9.329778 0.227555zM614.286222 303.217778c2.616889-2.503111 2.730667-6.712889 0.227556-9.329778-2.503111-2.616889-6.712889-2.730667-9.329778-0.227556-2.616889 2.503111-2.730667 6.712889-0.227556 9.329778 2.616889 2.616889 6.712889 2.730667 9.329778 0.227556zM615.310222 256.682667c2.616889-2.503111 2.730667-6.712889 0.227556-9.329778-2.503111-2.616889-6.712889-2.730667-9.329778-0.227556-2.616889 2.503111-2.730667 6.712889-0.227556 9.329778 2.503111 2.616889 6.599111 2.730667 9.329778 0.227556zM613.376 349.639111c2.616889-2.503111 2.730667-6.712889 0.227556-9.329778-2.503111-2.616889-6.712889-2.730667-9.329778-0.227555-2.616889 2.503111-2.730667 6.712889-0.227556 9.329778 2.503111 2.616889 6.712889 2.730667 9.329778 0.227555zM567.864889 302.193778c2.616889-2.503111 2.730667-6.712889 0.227555-9.329778-2.503111-2.616889-6.712889-2.730667-9.329777-0.227556-2.616889 2.503111-2.730667 6.712889-0.227556 9.329778 2.503111 2.730667 6.712889 2.730667 9.329778 0.227556zM566.840889 348.728889c2.616889-2.503111 2.730667-6.712889 0.227555-9.329778-2.503111-2.616889-6.712889-2.730667-9.329777-0.227555-2.616889 2.503111-2.730667 6.712889-0.227556 9.329777 2.616889 2.616889 6.712889 2.730667 9.329778 0.227556zM612.465778 396.174222c1.934222-1.934222 2.503111-4.664889 1.592889-7.054222-0.341333-0.796444-0.796444-1.592889-1.365334-2.161778-0.796444-0.796444-1.706667-1.365333-2.730666-1.706666-0.568889-0.227556-1.251556-0.341333-1.820445-0.341334-1.706667 0-3.413333 0.568889-4.664889 1.820445-1.365333 1.251556-1.934222 2.958222-2.048 4.551111 0 0.455111 0 0.796444 0.113778 1.251555 0.227556 1.251556 0.796444 2.389333 1.706667 3.413334 0.682667 0.682667 1.365333 1.137778 2.161778 1.479111 2.275556 1.024 5.006222 0.568889 7.054222-1.251556zM521.329778 301.283556c1.934222-1.934222 2.503111-4.664889 1.592889-7.054223-0.341333-0.796444-0.796444-1.592889-1.365334-2.161777-0.682667-0.682667-1.365333-1.137778-2.161777-1.479112-0.796444-0.341333-1.592889-0.568889-2.503112-0.568888-1.706667 0-3.413333 0.568889-4.664888 1.820444-1.365333 1.251556-1.934222 2.958222-2.048 4.551111 0 0.796444 0.113778 1.706667 0.455111 2.503111 0.341333 0.796444 0.796444 1.592889 1.365333 2.161778 0.682667 0.682667 1.365333 1.137778 2.161778 1.479111 2.389333 1.024 5.233778 0.682667 7.168-1.251555zM616.220444 210.261333c1.934222-1.934222 2.503111-4.664889 1.592889-7.054222-0.341333-0.796444-0.796444-1.592889-1.365333-2.161778-0.682667-0.682667-1.365333-1.137778-2.161778-1.479111-0.796444-0.341333-1.592889-0.568889-2.503111-0.568889-1.706667 0-3.413333 0.568889-4.664889 1.820445-1.365333 1.251556-1.934222 2.958222-2.048 4.551111 0 0.796444 0.113778 1.706667 0.455111 2.503111 0.341333 0.796444 0.796444 1.592889 1.365334 2.161778 0.682667 0.682667 1.365333 1.137778 2.161777 1.479111 2.389333 1.024 5.233778 0.568889 7.168-1.251556zM736.142222 714.752c-2.616889 2.503111-2.730667 6.712889-0.227555 9.329778 2.503111 2.616889 6.712889 2.730667 9.329777 0.227555 2.616889-2.503111 2.730667-6.712889 0.227556-9.329777-2.503111-2.616889-6.712889-2.730667-9.329778-0.227556zM735.232 761.287111c-2.616889 2.503111-2.730667 6.712889-0.227556 9.329778 2.503111 2.616889 6.712889 2.730667 9.329778 0.227555 2.616889-2.503111 2.730667-6.712889 0.227556-9.329777-2.503111-2.730667-6.712889-2.730667-9.329778-0.227556zM698.823111 723.285333c2.616889-2.503111 2.730667-6.712889 0.227556-9.329777-2.503111-2.616889-6.712889-2.730667-9.329778-0.227556-2.616889 2.503111-2.730667 6.712889-0.227556 9.329778 2.503111 2.730667 6.712889 2.730667 9.329778 0.227555zM653.312 675.953778c2.616889-2.503111 2.730667-6.712889 0.227556-9.329778-2.503111-2.616889-6.712889-2.730667-9.329778-0.227556-2.616889 2.503111-2.730667 6.712889-0.227556 9.329778 2.503111 2.616889 6.712889 2.730667 9.329778 0.227556zM607.687111 628.508444c2.616889-2.503111 2.730667-6.712889 0.227556-9.329777-2.503111-2.616889-6.712889-2.730667-9.329778-0.227556-2.616889 2.503111-2.730667 6.712889-0.227556 9.329778 2.616889 2.616889 6.712889 2.730667 9.329778 0.227555zM831.032889 623.729778c-2.616889 2.503111-2.730667 6.712889-0.227556 9.329778 2.503111 2.616889 6.712889 2.730667 9.329778 0.227555 2.616889-2.503111 2.730667-6.712889 0.227556-9.329778-2.616889-2.730667-6.712889-2.730667-9.329778-0.227555zM783.587556 669.240889c-2.616889 2.503111-2.730667 6.712889-0.227556 9.329778 2.503111 2.616889 6.712889 2.730667 9.329778 0.227555 2.616889-2.503111 2.730667-6.712889 0.227555-9.329778-2.503111-2.616889-6.712889-2.730667-9.329777-0.227555zM793.6 632.263111c2.616889-2.503111 2.730667-6.712889 0.227556-9.329778-2.503111-2.616889-6.712889-2.730667-9.329778-0.227555-2.616889 2.503111-2.730667 6.712889-0.227556 9.329778 2.616889 2.616889 6.712889 2.730667 9.329778 0.227555zM782.677333 715.662222c-2.616889 2.503111-2.730667 6.712889-0.227555 9.329778 2.503111 2.616889 6.712889 2.730667 9.329778 0.227556 2.616889-2.503111 2.730667-6.712889 0.227555-9.329778-2.616889-2.616889-6.712889-2.730667-9.329778-0.227556zM746.268444 677.774222c2.616889-2.503111 2.730667-6.712889 0.227556-9.329778-2.503111-2.616889-6.712889-2.730667-9.329778-0.227555-2.616889 2.503111-2.730667 6.712889-0.227555 9.329778 2.503111 2.616889 6.712889 2.730667 9.329777 0.227555zM701.667556 583.907556c2.616889-2.503111 2.730667-6.712889 0.227555-9.329778-2.503111-2.616889-6.712889-2.730667-9.329778-0.227556-2.616889 2.503111-2.730667 6.712889-0.227555 9.329778 2.503111 2.616889 6.712889 2.730667 9.329778 0.227556zM748.088889 584.817778c2.616889-2.503111 2.730667-6.712889 0.227555-9.329778-2.503111-2.616889-6.712889-2.730667-9.329777-0.227556-2.616889 2.503111-2.730667 6.712889-0.227556 9.329778 2.503111 2.730667 6.712889 2.730667 9.329778 0.227556zM702.577778 537.372444c2.616889-2.503111 2.730667-6.712889 0.227555-9.329777-2.503111-2.616889-6.712889-2.730667-9.329777-0.227556-2.616889 2.503111-2.730667 6.712889-0.227556 9.329778 2.503111 2.730667 6.712889 2.844444 9.329778 0.227555zM700.643556 630.328889c2.616889-2.503111 2.730667-6.712889 0.227555-9.329778-2.503111-2.616889-6.712889-2.730667-9.329778-0.227555-2.616889 2.503111-2.730667 6.712889-0.227555 9.329777 2.616889 2.730667 6.712889 2.730667 9.329778 0.227556zM655.132444 582.997333c2.616889-2.503111 2.730667-6.712889 0.227556-9.329777-2.503111-2.616889-6.712889-2.730667-9.329778-0.227556-2.616889 2.503111-2.730667 6.712889-0.227555 9.329778 2.616889 2.616889 6.712889 2.730667 9.329777 0.227555zM744.903111 632.718222c0.796444-0.341333 1.592889-0.796444 2.161778-1.365333 0.682667-0.682667 1.137778-1.365333 1.479111-2.161778 1.024-2.389333 0.568889-5.233778-1.251556-7.168-0.682667-0.682667-1.365333-1.137778-2.161777-1.479111-1.592889-0.682667-3.299556-0.682667-5.006223-0.113778-0.796444 0.341333-1.592889 0.796444-2.161777 1.365334-0.682667 0.682667-1.137778 1.365333-1.479111 2.161777-0.682667 1.592889-0.682667 3.299556-0.113778 4.892445 0.341333 0.796444 0.796444 1.592889 1.365333 2.161778 2.048 2.048 4.778667 2.616889 7.168 1.706666zM654.222222 629.418667c2.616889-2.503111 2.730667-6.712889 0.227556-9.329778-2.503111-2.616889-6.712889-2.730667-9.329778-0.227556-2.616889 2.503111-2.730667 6.712889-0.227556 9.329778 2.503111 2.616889 6.712889 2.730667 9.329778 0.227556zM697.571556 678.229333c0.796444-0.341333 1.592889-0.796444 2.161777-1.365333 0.682667-0.682667 1.137778-1.365333 1.479111-2.161778 1.024-2.389333 0.568889-5.233778-1.251555-7.168-0.682667-0.682667-1.365333-1.137778-2.161778-1.479111-1.592889-0.682667-3.299556-0.682667-4.892444-0.113778-0.796444 0.341333-1.592889 0.796444-2.161778 1.365334-0.682667 0.682667-1.137778 1.365333-1.479111 2.161777-0.682667 1.592889-0.682667 3.299556-0.113778 4.892445 0.341333 0.796444 0.796444 1.592889 1.365333 2.161778 1.820444 2.048 4.664889 2.616889 7.054223 1.706666zM653.312 538.055111c0.113778 0 0.227556-0.113778 0.341333-0.113778 0.113778 0 0.113778 0 0.227556-0.113777 0.796444-0.341333 1.592889-0.796444 2.161778-1.365334 1.251556-1.251556 1.934222-2.844444 2.048-4.437333v-0.455111c0-1.592889-0.568889-3.185778-1.820445-4.437334-1.137778-1.137778-2.503111-1.820444-3.982222-1.934222h-0.682667c-1.706667 0-3.413333 0.568889-4.664889 1.820445-1.024 0.910222-1.592889 2.161778-1.820444 3.299555-0.113778 0.455111-0.113778 0.796444-0.113778 1.251556 0 0.796444 0.113778 1.706667 0.455111 2.503111 0.341333 0.796444 0.796444 1.592889 1.365334 2.161778 0.227556 0.227556 0.455111 0.455111 0.682666 0.568889 1.592889 1.365333 3.754667 1.820444 5.802667 1.251555zM841.045333 586.752c2.616889-2.503111 2.730667-6.712889 0.227556-9.329778-2.503111-2.616889-6.712889-2.730667-9.329778-0.227555-2.616889 2.503111-2.730667 6.712889-0.227555 9.329777 2.503111 2.616889 6.712889 2.730667 9.329777 0.227556zM842.979556 493.795556c2.616889-2.503111 2.730667-6.712889 0.227555-9.329778-2.503111-2.616889-6.712889-2.730667-9.329778-0.227556-2.616889 2.503111-2.730667 6.712889-0.227555 9.329778 2.503111 2.616889 6.599111 2.730667 9.329778 0.227556zM795.534222 539.306667c2.616889-2.503111 2.730667-6.712889 0.227556-9.329778-2.503111-2.616889-6.712889-2.730667-9.329778-0.227556-2.616889 2.503111-2.730667 6.712889-0.227556 9.329778 2.503111 2.616889 6.712889 2.730667 9.329778 0.227556zM750.023111 491.861333c2.616889-2.503111 2.730667-6.712889 0.227556-9.329777-2.503111-2.616889-6.712889-2.730667-9.329778-0.227556-2.616889 2.503111-2.730667 6.712889-0.227556 9.329778 2.503111 2.730667 6.712889 2.730667 9.329778 0.227555zM839.793778 541.582222c0.796444-0.341333 1.592889-0.796444 2.161778-1.365333 0.682667-0.682667 1.137778-1.365333 1.479111-2.161778 1.024-2.389333 0.568889-5.233778-1.251556-7.168-0.682667-0.682667-1.365333-1.137778-2.161778-1.479111-1.592889-0.682667-3.299556-0.682667-5.006222-0.113778-0.796444 0.341333-1.592889 0.796444-2.161778 1.365334-0.682667 0.682667-1.137778 1.365333-1.479111 2.161777-0.682667 1.592889-0.682667 3.299556-0.113778 4.892445 0.341333 0.796444 0.796444 1.592889 1.365334 2.161778 1.934222 2.161778 4.778667 2.616889 7.168 1.706666zM748.999111 538.396444c2.616889-2.503111 2.730667-6.712889 0.227556-9.329777-2.503111-2.616889-6.712889-2.730667-9.329778-0.227556-2.616889 2.503111-2.730667 6.712889-0.227556 9.329778 2.616889 2.616889 6.712889 2.730667 9.329778 0.227555zM792.348444 587.207111c0.796444-0.341333 1.592889-0.796444 2.161778-1.365333 0.682667-0.682667 1.137778-1.365333 1.479111-2.161778 1.024-2.389333 0.568889-5.233778-1.251555-7.168-0.682667-0.682667-1.365333-1.137778-2.161778-1.479111-1.592889-0.682667-3.299556-0.682667-4.892444-0.113778-0.796444 0.341333-1.592889 0.796444-2.161778 1.365333-0.682667 0.682667-1.137778 1.365333-1.479111 2.161778-0.682667 1.592889-0.682667 3.299556-0.113778 4.892445 0.341333 0.796444 0.796444 1.592889 1.365333 2.161777 1.820444 2.048 4.664889 2.616889 7.054222 1.706667zM700.643556 492.544c1.024-0.227556 1.934222-0.796444 2.844444-1.592889 1.137778-1.137778 1.820444-2.503111 1.934222-3.982222v-0.682667c0-0.568889-0.113778-1.137778-0.227555-1.706666 0-0.227556-0.113778-0.341333-0.113778-0.568889 0-0.113778-0.113778-0.227556-0.113778-0.341334-0.113778-0.227556-0.227556-0.568889-0.341333-0.796444-0.113778-0.113778-0.113778-0.227556-0.227556-0.455111-0.227556-0.341333-0.455111-0.568889-0.682666-0.910222-0.682667-0.682667-1.365333-1.137778-2.161778-1.479112-2.389333-1.024-5.233778-0.568889-7.168 1.251556-0.455111 0.455111-0.910222 1.024-1.251556 1.592889-0.227556 0.341333-0.341333 0.796444-0.455111 1.137778-0.113778 0.227556-0.113778 0.455111-0.113778 0.568889-0.455111 2.048 0.113778 4.323556 1.706667 5.916444 0.227556 0.227556 0.455111 0.455111 0.682667 0.568889 1.592889 1.592889 3.754667 2.048 5.688889 1.479111zM843.889778 447.260444c2.616889-2.503111 2.730667-6.712889 0.227555-9.329777-2.503111-2.616889-6.712889-2.730667-9.329777-0.227556-2.616889 2.503111-2.730667 6.712889-0.227556 9.329778 2.503111 2.730667 6.712889 2.730667 9.329778 0.227555zM794.851556 401.635556c1.251556-0.227556 2.389333-0.796444 3.413333-1.706667 1.137778-1.137778 1.820444-2.503111 1.934222-3.982222 0.227556-1.820444-0.341333-3.868444-1.820444-5.347556-1.592889-1.592889-3.754667-2.275556-5.916445-1.934222-0.455111 0.113778-0.796444 0.227556-1.251555 0.341333-0.455111 0.113778-0.796444 0.341333-1.137778 0.568889-0.341333 0.227556-0.682667 0.455111-1.024 0.796445-0.455111 0.455111-0.910222 1.024-1.251556 1.592888-0.227556 0.341333-0.341333 0.796444-0.455111 1.137778-0.113778 0.227556-0.113778 0.455111-0.113778 0.568889-0.455111 2.048 0.113778 4.323556 1.706667 5.916445 0.455111 0.455111 0.910222 0.796444 1.479111 1.137777l0.113778 0.113778c1.479111 0.796444 2.958222 1.024 4.323556 0.796445z" fill="#231B3B" p-id="2072"></path><path d="M881.777778 475.022222c0.227556 3.413333 0 6.940444-0.910222 10.467556l-67.242667 296.846222c-0.910222 3.527111-2.503111 6.826667-4.437333 9.671111-7.168 14.336-18.204444 27.079111-32.768 36.408889-15.36 9.784889-32.426667 14.336-49.379556 14.222222v-0.227555l-432.014222-0.227556a32.176356 32.176356 0 0 1-9.329778 0h-114.915556c-1.592889 0.227556-3.299556 0.455111-4.892444 0.455111-17.180444 0-31.175111-13.880889-31.175111-31.175111l0.227555-373.646222c0-17.180444 13.994667-31.175111 31.175112-31.175111 1.251556 0 2.503111 0.113778 3.754666 0.227555l103.310222-0.227555v-0.455111c95.004444-6.826667 170.325333-84.764444 173.056-180.792889-0.227556-2.730667-0.455111-5.461333-0.455111-8.192 0-49.948444 40.504889-90.567111 90.567111-90.567111 43.008 0 78.848 29.923556 88.177778 70.087111l0.455111-0.113778c5.12 22.869333 7.850667 46.762667 7.850667 71.224889 0 37.660444-6.485333 73.841778-18.204444 107.52l173.738666 0.227555c1.592889 0 3.185778 0.113778 4.664889 0.341334 29.696 1.137778 58.254222 16.384 75.093333 43.576889 10.808889 17.294222 15.018667 36.750222 13.653334 55.523555m-684.714667 304.924445h62.236445l0.227555-310.954667-62.236444 0.113778-0.227556 310.840889z m618.609778-327.793778c-6.030222-9.671111-16.497778-14.677333-27.192889-14.108445v-0.113777l-219.591111-0.227556c-17.180444 0-31.175111-13.994667-31.175111-31.175111 0-4.892444 1.137778-9.557333 3.299555-13.767111l-0.341333-0.227556c12.401778-23.096889 21.504-48.355556 26.624-74.979555h0.341333s4.096-16.839111 4.096-49.038222c0-25.486222-4.664889-48.810667-4.664889-48.810667h-0.227555c0-0.455111 0.113778-0.910222 0.113778-1.365333 0-16.042667-13.084444-29.127111-29.127111-29.127112-16.042667 0-29.127111 13.084444-29.127112 29.127112 0 0.682667 0 1.365333 0.113778 2.048h-0.455111s0.455111 24.348444-4.323555 49.493333c-2.048 10.695111-5.006222 20.707556-7.623112 28.558222 0 0-0.113778 0-0.113777-0.113778-26.168889 80.099556-92.046222 142.222222-174.421334 163.043556l-0.341333 318.691555 405.617778 0.113778c1.365333 0 2.730667 0.113778 3.982222 0.341334 4.096-0.568889 8.078222-1.934222 11.719111-4.323556 5.233778-3.299556 8.988444-7.964444 11.264-13.312h0.113778l64.739555-285.809778-0.227555-0.113778c2.503111-7.964444 1.706667-17.066667-3.072-24.803555" fill="#592B0C" p-id="2073"></path></svg>