<svg class="icon" viewBox="0 0 1039 1024" version="1.1" xmlns="http://www.w3.org/2000/svg" p-id="4259" height="128" width="128"><path d="M422.327684 877.438795c-190.915254 0-347.118644-156.20339-347.118644-347.118644s156.20339-347.118644 347.118644-347.118644c169.702448 0 314.335217 121.491525 343.26177 289.265536 3.856874 21.212806-11.570621 40.497175-30.854991 44.354049-21.212806 3.856874-40.497175-11.570621-44.354049-30.85499-21.212806-131.13371-133.062147-225.627119-266.124293-225.627119-148.489642 0-269.981168 121.491525-269.981168 269.981168s121.491525 269.981168 269.981168 269.981167c21.212806 0 38.568738 17.355932 38.568738 38.568738s-19.284369 38.568738-40.497175 38.568739z" fill="#388CEB" p-id="4260"></path><path d="M730.877589 877.438795h-308.549905c-21.212806 0-38.568738-17.355932-38.568739-38.568739s17.355932-38.568738 38.568739-38.568738h308.549905c63.638418 0 115.706215-52.067797 115.706215-115.706214v-38.568739c0-63.638418-52.067797-115.706215-115.706215-115.706214-21.212806 0-38.568738-17.355932-38.568738-38.568739s17.355932-38.568738 38.568738-38.568738c106.06403 0 192.843691 86.779661 192.843692 192.843691v38.568739c0 106.06403-86.779661 192.843691-192.843692 192.843691z" fill="#388CEB" p-id="4261"></path><path d="M441.612053 646.026365c-21.212806 0-38.568738-17.355932-38.568738-38.568738v-173.559322c0-21.212806 17.355932-38.568738 38.568738-38.568738s38.568738 17.355932 38.568738 38.568738v173.559322c0 21.212806-17.355932 38.568738-38.568738 38.568738z" fill="#E78E00" p-id="4262"></path><path d="M441.612053 721.235405c-9.642185 0-19.284369-3.856874-26.998117-11.570622l-136.919021-136.91902c-15.427495-15.427495-15.427495-38.568738 0-53.996234 15.427495-15.427495 38.568738-15.427495 53.996234 0l109.920904 109.920904 106.06403-106.06403c15.427495-15.427495 38.568738-15.427495 53.996233 0 15.427495 15.427495 15.427495 38.568738 0 53.996234l-133.062147 133.062146c-7.713748 7.713748-17.355932 11.570621-26.998116 11.570622z" fill="#E78E00" p-id="4263"></path></svg>